<svg width="103" height="101" viewBox="0 0 103 101" fill="none" xmlns="http://www.w3.org/2000/svg">
<g clip-path="url(#clip0_302_811)">
<path d="M77.25 63.125V56.8125H70.555C70.04 53.0597 68.5594 49.6478 66.3063 46.7441L71.041 42.1044L66.5058 37.6541L61.7678 42.2937C58.8066 40.0844 55.3303 38.6325 51.5032 38.1275V31.5625H45.0657V38.1275C41.2354 38.6325 37.7592 40.0844 34.7979 42.2937L30.0663 37.6541L25.5279 42.1044L30.2595 46.7441C28.0063 49.6478 26.5257 53.0566 26.0107 56.8125H19.3125V63.125H26.0075C26.5225 66.8778 28.0031 70.2897 30.2562 73.1903L25.5247 77.8331L30.0631 82.2834L34.7947 77.6406C37.7559 79.85 41.2322 81.3018 45.0625 81.8068V88.375H51.5V81.81C55.3271 81.305 58.8066 79.8531 61.7646 77.6438L66.4994 82.2866L71.0378 77.8363L66.3063 73.1903C68.5594 70.2865 70.04 66.8778 70.555 63.125H77.25ZM48.2812 75.75C39.3975 75.75 32.1875 68.68 32.1875 59.9688C32.1875 51.2575 39.3975 44.1875 48.2812 44.1875C57.165 44.1875 64.375 51.2575 64.375 59.9688C64.375 68.68 57.165 75.75 48.2812 75.75Z" fill="#EF643B"/>
<path d="M48.2812 12.625C25.1706 12.625 6.4375 19.695 6.4375 28.4062V85.2188C6.4375 93.93 25.1706 101 48.2812 101C71.3919 101 90.125 93.93 90.125 85.2188V28.4062C90.125 19.695 71.3919 12.625 48.2812 12.625ZM83.6875 44.1875H77.25V50.5H83.6875V69.4375H77.25V75.75H83.6875V85.2188C83.2691 87.9647 70.3297 94.6875 48.2812 94.6875C26.2328 94.6875 13.2934 87.9647 12.875 85.2188V75.75H19.3125V69.4375H12.875V50.5H19.3125V44.1875H12.875V28.4062C13.2934 25.6603 26.2328 18.9375 48.2812 18.9375C70.3297 18.9375 83.2691 25.6919 83.6875 28.4062V44.1875Z" fill="#EF643B"/>
</g>
<defs>
<clipPath id="clip0_302_811">
<rect width="103" height="101" fill="white"/>
</clipPath>
</defs>
</svg>
